<?xml version="1.0" encoding="utf-8"?>
<!-- Generator: Adobe Illustrator 21.0.0, SVG Export Plug-In . SVG Version: 6.00 Build 0)  -->
<svg version="1.1" id="Camada_1" xmlns="http://www.w3.org/2000/svg" xmlns:xlink="http://www.w3.org/1999/xlink" x="0px" y="0px"
	 viewBox="0 0 270.1 189.9" style="enable-background:new 0 0 270.1 189.9;" xml:space="preserve">
<style type="text/css">
	.st0{fill:#C44848;}
</style>
<g id="Camada_x0020_1">
	<g id="_170926960">
		<path class="st0" d="M71.4,9.5h-5c-8.9,0-14.6,1.1-17.1,3.5c-2.5,2.3-3.7,8.3-3.7,17.9v150.6h44.5c18.3,0,30.7-3.6,37.4-10.7
			c6.7-7.1,10.1-20.5,10.3-39.8l7.8-0.1c-0.5,9.8-1,19.7-1.4,29.6c-0.4,9.9-0.7,19.7-0.8,29.5H0v-8.4h1.8c8.1,0,13.4-1.2,15.9-3.6
			c2.4-2.4,3.6-8.3,3.6-17.8V30.9c0-9.6-1.2-15.6-3.6-17.9C15.3,10.6,10,9.5,1.8,9.5H0V0.8c5.2,0.4,10.7,0.6,16.5,0.8
			c5.8,0.2,12,0.3,18.7,0.3c6.8,0,13.1-0.1,19.1-0.3c5.9-0.2,11.6-0.4,17.1-0.8V9.5z"/>
		<path class="st0" d="M270.1,167.5h-24.2c0-19.1-1.3-46.8-4-83c-2.6-36.2-4.1-57.9-4.2-65.1h-1.3c-8.6,27.9-19.4,58.1-32.6,90.7
			c-13.2,32.6-19.8,51.7-19.8,57.3h-17.4c0-6-6.1-25.5-18.4-58.4c-12.3-32.9-20-54.9-23.2-66c-3.3-11.1-5.5-19-6.7-23.7H117
			c-0.2,11.7-1.9,35.4-5,71.1c-3.2,35.7-4.7,61.3-4.7,76.9H85.2c0-0.9,2.9-24.4,8.7-70.8c5.9-46.3,8.8-78.5,8.8-96.7h33.8
			c0,9.4,6.9,33,20.6,70.8c13.7,37.7,20.5,60.6,20.5,68.5h1.3c0-7.9,7.7-30.8,23.1-68.7C217.5,32.7,225.2,9.2,225.2,0h33.1
			c0,18.1,2,50.2,5.9,96.2C268.1,142.3,270.1,166,270.1,167.5z"/>
	</g>
</g>
</svg>
