<?xml version="1.0" encoding="UTF-8"?>
<!DOCTYPE svg PUBLIC "-//W3C//DTD SVG 1.1//EN" "http://www.w3.org/Graphics/SVG/1.1/DTD/svg11.dtd">
<!-- Creator: CorelDRAW X7 -->
<svg xmlns="http://www.w3.org/2000/svg" xml:space="preserve" width="95.2789mm" height="66.9889mm" version="1.1" style="shape-rendering:geometricPrecision; text-rendering:geometricPrecision; image-rendering:optimizeQuality; fill-rule:evenodd; clip-rule:evenodd"
viewBox="0 0 9877 6944"
 xmlns:xlink="http://www.w3.org/1999/xlink">
 <defs>
  <style type="text/css">
   <![CDATA[
    .fil0 {fill:#C44848;fill-rule:nonzero}
   ]]>
  </style>
 </defs>
 <g id="Camada_x0020_1">
  <metadata id="CorelCorpID_0Corel-Layer"/>
  <g id="_170926960">
   <path class="fil0" d="M2612 347l-183 0c-326,0 -535,42 -626,127 -92,85 -137,303 -137,655l0 5507 1628 0c668,0 1123,-130 1369,-392 244,-261 369,-748 376,-1457l287 -5c-19,359 -35,721 -50,1082 -14,361 -24,720 -30,1080l-5246 0 0 -308 66 0c297,0 491,-44 581,-132 88,-86 133,-305 133,-651l0 -4724c0,-352 -43,-570 -132,-655 -88,-85 -282,-127 -582,-127l-66 0 0 -318c191,13 393,22 605,29 212,6 440,10 684,10 249,0 480,-4 697,-10 216,-7 425,-16 626,-29l0 318z"/>
   <path class="fil0" d="M9877 6124l-885 0c0,-700 -48,-1710 -146,-3034 -96,-1323 -149,-2116 -154,-2379l-48 0c-313,1019 -711,2125 -1191,3318 -482,1193 -723,1891 -723,2095l-635 0c0,-220 -223,-931 -673,-2134 -448,-1202 -732,-2006 -850,-2414 -119,-407 -201,-696 -244,-865l-49 0c-8,429 -70,1295 -184,2600 -116,1304 -172,2241 -172,2813l-809 0c0,-32 106,-894 319,-2589 214,-1694 320,-2872 320,-3535l1237 0c0,345 251,1207 753,2588 501,1378 751,2215 751,2505l49 0c0,-290 281,-1128 846,-2514 565,-1383 845,-2244 845,-2579l1209 0c0,663 72,1835 217,3518 144,1684 217,2553 217,2606z"/>
  </g>
 </g>
</svg>
